<svg width="9.839844" height="15.455994" viewBox="0 0 9.83984 15.456" fill="none" xmlns="http://www.w3.org/2000/svg" xmlns:xlink="http://www.w3.org/1999/xlink">
	<desc>
			Created with Pixso.
	</desc>
	<defs/>
	<path id="$" d="M5.75977 13.992L5.75977 15.456L4.03223 15.456L4.03223 13.944Q2.97607 13.776 2.22021 13.356Q1.46387 12.936 0.972168 12.348C0.644043 11.956 0.399902 11.532 0.240234 11.076Q0.034668 10.4909 0.00488281 9.89709L0.00488281 9.89691Q0 9.79657 0 9.69601L0 9.12L1.82422 9.12L1.82422 9.40799Q1.82422 10.5293 2.36963 11.2185Q2.38477 11.2374 2.3999 11.256C2.78418 11.72 3.32812 12.032 4.03223 12.192L4.03223 8.28Q2.23193 8.04001 1.28418 7.23599Q1.00244 6.99707 0.804199 6.70197L0.804199 6.70184Q0.335938 6.00397 0.335938 4.992L0.335938 4.84799Q0.335938 4.07999 0.63623 3.492Q0.797363 3.17557 1.01807 2.90781L1.01807 2.90781L1.01807 2.90778L1.01807 2.90765Q1.20752 2.67792 1.43994 2.48401Q1.94385 2.064 2.61621 1.81201Q3.28809 1.56 4.03223 1.48801L4.03223 0L5.75977 0L5.75977 1.53601Q6.6001 1.67999 7.28418 2.02802Q7.96777 2.37601 8.44824 2.88C8.76807 3.216 9.01611 3.58801 9.19189 3.996Q9.31055 4.27133 9.37598 4.55881L9.37598 4.55884Q9.45605 4.91034 9.45605 5.28L9.45605 5.71201L7.63184 5.71201L7.63184 5.42401Q7.63184 4.95917 7.4541 4.577L7.4541 4.57684Q7.3291 4.30795 7.11621 4.07999Q7.07275 4.03366 7.02686 3.98969Q6.5293 3.50986 5.75977 3.31201L5.75977 6.74399Q7.75195 6.98401 8.7959 7.836Q9.17871 8.14838 9.42139 8.54623L9.42139 8.54645Q9.83984 9.2337 9.83984 10.176L9.83984 10.32Q9.83984 11.3167 9.41113 12.069Q9.14844 12.5305 8.72412 12.9Q8.71387 12.9087 8.7041 12.9172Q7.59131 13.8731 5.75977 13.992ZM4.03223 6.552C3.34424 6.42401 2.86816 6.22 2.604 5.94Q2.51221 5.84283 2.44189 5.73215Q2.20801 5.3645 2.20801 4.84799Q2.20801 4.46231 2.37012 4.16507Q2.50049 3.9259 2.73584 3.74399Q3.26416 3.336 4.03223 3.216L4.03223 6.552ZM5.75977 8.47198L5.75977 12.264C6.44824 12.184 6.98779 11.976 7.37988 11.64C7.77197 11.304 7.96777 10.864 7.96777 10.32C7.96777 9.76001 7.79199 9.34399 7.43994 9.07199C7.08789 8.79999 6.52783 8.60001 5.75977 8.47198Z" clip-rule="evenodd" fill="#9EBBBD" fill-opacity="1.000000" fill-rule="evenodd"/>
</svg>
