<svg width="13.000000" height="8.271423" viewBox="0 0 13 8.27142" fill="none" xmlns="http://www.w3.org/2000/svg" xmlns:xlink="http://www.w3.org/1999/xlink">
	<desc>
			Created with Pixso.
	</desc>
	<defs/>
	<path id="Path" d="M0.0317383 4.57455C0.0527344 4.26279 0.0952148 3.9227 0.157715 3.56357C0.221191 3.20176 0.302246 2.85972 0.399902 2.5471C0.500488 2.22398 0.637695 1.90489 0.806641 1.59911C0.982422 1.28173 1.18896 1.00536 1.42041 0.777946C1.6626 0.540031 1.95898 0.348755 2.30176 0.209229C2.64355 0.0704346 3.02246 0.00012207 3.42725 0.00012207C3.58643 0.00012207 3.74023 0.0671387 4.03711 0.265747C4.22021 0.388184 4.43408 0.529778 4.67285 0.686394C4.87695 0.819939 5.15332 0.945061 5.49463 1.05834C5.82812 1.16906 6.1665 1.22521 6.50049 1.22521C6.83447 1.22521 7.17236 1.16906 7.50586 1.05834C7.84717 0.945183 8.12402 0.820061 8.32764 0.686516C8.56396 0.531364 8.77832 0.389771 8.96387 0.265625C9.26025 0.0670166 9.41455 0 9.57324 0C9.97852 0 10.3569 0.0704346 10.6987 0.209351C11.041 0.348633 11.3379 0.539909 11.5801 0.778069C11.8115 1.00561 12.0181 1.28185 12.1938 1.59911C12.3628 1.90489 12.4995 2.22386 12.6006 2.54722C12.6978 2.85984 12.7793 3.20176 12.8428 3.56357C12.9053 3.92221 12.9478 4.26242 12.9688 4.57491C12.9897 4.88107 13 5.19881 13 5.51973C13 6.35493 12.7412 7.03107 12.2314 7.52972C11.728 8.02179 11.0615 8.27142 10.2515 8.27142L2.74854 8.27142C1.93848 8.27142 1.27246 8.02191 0.768555 7.52972C0.258789 7.03144 0 6.35518 0 5.51961C0 5.19723 0.0107422 4.87923 0.0317383 4.57455Z" fill="#9EBBBD" fill-opacity="1.000000" fill-rule="nonzero"/>
</svg>
