<svg width="86.664062" height="53.135986" viewBox="0 0 86.6641 53.136" fill="none" xmlns="http://www.w3.org/2000/svg" xmlns:xlink="http://www.w3.org/1999/xlink">
	<desc>
			Created with Pixso.
	</desc>
	<defs/>
	<path id="SPLITTER" d="M9.26416 17.112C8.51221 17.352 7.66406 17.472 6.72021 17.472C5.61621 17.472 4.64404 17.316 3.8042 17.004C2.96387 16.692 2.26416 16.26 1.7041 15.708C1.46973 15.4773 1.25977 15.2298 1.07324 14.9655L1.07324 14.9655C0.813477 14.5975 0.599609 14.197 0.432129 13.764C0.144043 13.02 0 12.208 0 11.328L0 10.608L3.16797 10.608L3.16797 11.184C3.16797 12.0008 3.35986 12.6837 3.74316 13.2326C3.83301 13.3611 3.93311 13.4822 4.04395 13.596C4.62793 14.196 5.53613 14.496 6.76807 14.496C7.72803 14.496 8.43994 14.288 8.90381 13.872C9.36816 13.456 9.6001 12.96 9.6001 12.384C9.6001 12.112 9.55176 11.852 9.45605 11.604C9.35986 11.356 9.19189 11.132 8.95215 10.932C8.71191 10.732 8.38379 10.552 7.96777 10.392C7.55176 10.232 7.02393 10.096 6.38379 9.98401C5.53613 9.84 4.75977 9.65201 4.05615 9.42001C3.35205 9.18799 2.74023 8.88 2.22021 8.496C1.95117 8.29736 1.71289 8.07303 1.50635 7.82303C1.31299 7.58972 1.14697 7.33405 1.00781 7.056C0.720215 6.48001 0.576172 5.776 0.576172 4.944L0.576172 4.79999C0.576172 4.24823 0.666016 3.72989 0.846191 3.245L0.846191 3.24496C0.890625 3.12527 0.94043 3.0076 0.996094 2.892C1.0957 2.68442 1.20898 2.48645 1.33691 2.29807L1.33691 2.29803C1.56885 1.95645 1.84717 1.64645 2.17188 1.36801C2.67578 0.936005 3.28418 0.600006 3.99609 0.359985C4.70801 0.119995 5.50391 0 6.38379 0C7.37598 0 8.25586 0.140015 9.02393 0.420013C9.79199 0.700012 10.436 1.07999 10.9561 1.56C11.3418 1.91608 11.6572 2.3118 11.9019 2.74713C11.9873 2.89862 12.064 3.0549 12.1318 3.216C12.2383 3.46765 12.3232 3.72452 12.3872 3.98657C12.481 4.37433 12.5278 4.77347 12.5278 5.18399L12.5278 6.048L9.35986 6.048L9.35986 5.47198C9.35986 5.20828 9.31982 4.95813 9.23975 4.7215C9.11572 4.35519 8.896 4.02136 8.58008 3.72C8.54883 3.69025 8.51709 3.66141 8.48438 3.63342C7.97119 3.19516 7.27148 2.97601 6.38379 2.97601C5.58398 2.97601 4.95215 3.14001 4.48779 3.46799C4.24805 3.63766 4.07031 3.83835 3.9541 4.07007C3.84619 4.28635 3.79199 4.52966 3.79199 4.79999C3.79199 5.08801 3.84814 5.34799 3.95996 5.57999C4.07178 5.81201 4.26807 6.01999 4.54785 6.20401C4.82812 6.388 5.1958 6.552 5.65186 6.69601C6.10791 6.84 6.68799 6.97601 7.39209 7.104C9.15186 7.42401 10.4961 7.95999 11.4238 8.71201C11.6392 8.88629 11.8291 9.07993 11.9946 9.29288C12.542 9.99878 12.8159 10.9172 12.8159 12.048L12.8159 12.336C12.8159 13.12 12.6758 13.828 12.396 14.46C12.2583 14.7705 12.0908 15.0588 11.8936 15.3248C11.689 15.6004 11.4526 15.8521 11.1841 16.08C10.6558 16.528 10.0161 16.872 9.26416 17.112ZM28.7202 10.8L28.7202 17.136L25.5518 17.136L25.5518 0.335999L32.1279 0.335999C32.9922 0.335999 33.7441 0.476013 34.3838 0.756012C35.0239 1.03601 35.5562 1.40399 35.98 1.85999C36.1919 2.08798 36.3779 2.33197 36.5381 2.59198C36.6978 2.85199 36.832 3.12799 36.9399 3.42001C37.1558 4.004 37.2642 4.60001 37.2642 5.20801L37.2642 5.784C37.2642 6.40799 37.1558 7.01999 36.9399 7.62C36.8247 7.94061 36.6797 8.24295 36.5049 8.52701C36.3525 8.77457 36.1772 9.00821 35.98 9.228C35.5562 9.70001 35.0239 10.08 34.3838 10.368C33.7441 10.656 32.9922 10.8 32.1279 10.8L28.7202 10.8ZM31.8159 7.776L28.7202 7.776L28.7202 3.35999L31.8159 3.35999C32.52 3.35999 33.0762 3.552 33.4839 3.936C33.8921 4.32001 34.0962 4.81601 34.0962 5.42401L34.0962 5.71201C34.0962 6.32001 33.8921 6.81601 33.4839 7.20001C33.0762 7.58398 32.52 7.776 31.8159 7.776ZM61.2798 14.112L61.2798 17.136L50.48 17.136L50.48 0.335999L53.6479 0.335999L53.6479 14.112L61.2798 14.112ZM86.1602 14.112L86.1602 17.136L74.9282 17.136L74.9282 14.112L78.96 14.112L78.96 3.35999L74.9282 3.35999L74.9282 0.335999L86.1602 0.335999L86.1602 3.35999L82.1279 3.35999L82.1279 14.112L86.1602 14.112ZM8.06396 39.36L8.06396 53.136L4.896 53.136L4.896 39.36L0.432129 39.36L0.432129 36.336L12.5278 36.336L12.5278 39.36L8.06396 39.36ZM32.752 39.36L32.752 53.136L29.584 53.136L29.584 39.36L25.1201 39.36L25.1201 36.336L37.2158 36.336L37.2158 39.36L32.752 39.36ZM61.376 50.112L61.376 53.136L50.48 53.136L50.48 36.336L61.0879 36.336L61.0879 39.36L53.6479 39.36L53.6479 43.2L60.7998 43.2L60.7998 46.224L53.6479 46.224L53.6479 50.112L61.376 50.112ZM78.1201 46.8L78.1201 53.136L74.9521 53.136L74.9521 36.336L81.3838 36.336C82.248 36.336 83.0078 36.456 83.6641 36.696C84.3198 36.936 84.8682 37.268 85.3081 37.692C85.5493 37.9244 85.7593 38.1772 85.938 38.4505C86.085 38.6758 86.2109 38.9149 86.3159 39.168C86.5479 39.728 86.6641 40.328 86.6641 40.968L86.6641 41.544C86.6641 42.232 86.48 42.876 86.1118 43.476C85.7441 44.076 85.1758 44.536 84.4082 44.856L84.4082 45.288C84.9678 45.352 85.4121 45.568 85.7402 45.936C86.0679 46.304 86.2319 46.768 86.2319 47.328L86.2319 53.136L83.064 53.136L83.064 48.096C83.064 47.712 82.9639 47.4 82.7642 47.16C82.564 46.92 82.2319 46.8 81.7681 46.8L78.1201 46.8ZM81.144 43.776L78.1201 43.776L78.1201 39.36L81.144 39.36C81.9121 39.36 82.4961 39.564 82.896 39.972C83.2959 40.38 83.4961 40.864 83.4961 41.424L83.4961 41.712C83.4961 42.368 83.2959 42.876 82.896 43.236C82.4961 43.596 81.9121 43.776 81.144 43.776Z" clip-rule="evenodd" fill="#3D6666" fill-opacity="1.000000" fill-rule="evenodd"/>
</svg>
